<?xml version="1.0" standalone="no"?>
<!DOCTYPE svg PUBLIC "-//W3C//DTD SVG 20010904//EN"
 "http://www.w3.org/TR/2001/REC-SVG-20010904/DTD/svg10.dtd">
<svg version="1.0" xmlns="http://www.w3.org/2000/svg"
 width="824.000000pt" height="516.000000pt" viewBox="0 0 824.000000 516.000000"
 preserveAspectRatio="xMidYMid meet">

<g transform="translate(0.000000,516.000000) scale(0.100000,-0.100000)"
fill="#000000" stroke="none">
<path d="M5312 5120 c15 -24 48 -27 48 -3 0 15 1 15 18 0 13 -12 37 -17 81
-17 35 0 68 -5 77 -12 8 -7 29 -26 45 -41 29 -26 31 -27 36 -8 3 11 16 27 28
35 22 14 24 14 30 -3 3 -11 12 -22 20 -25 8 -3 15 -14 15 -25 0 -30 11 -51 26
-51 8 0 14 -4 14 -10 0 -5 14 -10 31 -10 17 0 28 4 24 10 -3 6 -1 10 4 10 6 0
11 -7 11 -16 0 -9 9 -18 20 -21 23 -6 27 -23 5 -23 -8 0 -15 -4 -15 -10 0 -5
5 -10 10 -10 7 0 7 -6 0 -19 -5 -11 -10 -33 -10 -49 0 -22 -4 -29 -17 -28 -13
1 -19 -8 -21 -27 -3 -26 -1 -27 25 -21 42 11 80 9 98 -6 8 -7 13 -15 10 -18
-2 -3 -10 0 -17 6 -7 5 -25 8 -40 5 -46 -9 -33 -73 14 -73 10 0 18 -5 18 -11
0 -6 12 -10 28 -9 15 1 48 2 75 1 l47 -1 0 -44 c0 -36 4 -45 21 -49 12 -3 18
-10 15 -15 -9 -15 22 -80 43 -92 11 -5 33 -10 50 -10 26 0 31 4 31 25 0 22 -5
25 -37 26 -31 2 -33 3 -10 6 15 3 33 13 40 24 15 25 27 24 27 -1 0 -22 35 -28
43 -7 4 10 6 10 6 0 1 -9 17 -13 46 -13 44 0 45 -1 45 -32 0 -63 -17 -67 -167
-41 -29 4 -33 2 -33 -16 0 -19 6 -21 55 -21 42 0 55 -3 55 -15 0 -10 10 -15
29 -15 20 0 30 -6 34 -20 3 -11 12 -20 21 -20 9 0 16 8 16 20 0 13 7 20 20 20
13 0 20 -7 20 -20 0 -11 5 -20 10 -20 6 0 10 7 10 15 0 10 9 15 28 14 15 0 21
-3 15 -6 -37 -14 16 -61 56 -48 9 2 23 0 31 -5 11 -7 7 -10 -18 -10 -23 0 -32
-4 -29 -12 2 -7 14 -12 26 -11 11 2 21 -2 21 -7 0 -6 -11 -10 -24 -10 -31 0
-42 -16 -24 -37 10 -13 10 -17 1 -20 -13 -5 -18 -33 -7 -33 4 0 13 8 20 17 17
24 32 8 16 -17 -15 -24 -15 -30 -1 -30 14 0 39 26 39 41 0 6 -9 19 -19 28 -19
16 -18 17 15 17 19 0 34 -3 34 -7 0 -4 21 -8 48 -8 67 0 142 -11 142 -22 0
-12 -87 -11 -95 1 -3 6 -17 10 -31 10 -13 0 -24 -4 -24 -10 0 -5 8 -10 18 -10
16 -1 16 -1 0 -11 -29 -16 -21 -29 18 -29 29 0 34 -3 30 -17 -8 -27 20 -56 53
-56 17 0 33 -7 35 -14 5 -11 10 -11 27 -2 21 11 38 0 39 -24 0 -5 5 -5 11 -2
16 11 76 -4 82 -20 4 -10 0 -12 -16 -8 -12 2 -32 7 -44 10 -14 3 -23 1 -23 -6
0 -6 3 -11 8 -11 16 0 33 -41 22 -55 -8 -10 -4 -14 17 -20 17 -4 29 -2 31 4 5
14 52 15 52 1 0 -5 7 -10 15 -10 8 0 15 6 15 14 0 8 -7 16 -15 20 -8 3 -15 12
-15 20 0 8 -8 17 -17 19 -11 3 -7 5 10 6 18 1 27 -4 27 -15 0 -11 6 -14 21 -9
39 13 82 -54 44 -69 -39 -15 2 -56 56 -56 11 0 28 -7 36 -16 13 -12 27 -14 62
-9 25 4 50 11 55 16 13 12 53 12 61 -1 3 -5 -1 -10 -9 -10 -9 0 -16 -8 -16
-19 0 -21 61 -41 125 -41 41 0 75 -15 75 -32 0 -20 49 -84 75 -98 14 -7 25
-20 26 -29 0 -11 2 -12 6 -3 2 6 10 12 18 12 15 0 25 -45 18 -83 -3 -15 0 -33
6 -41 14 -17 0 -29 -22 -20 -10 3 -19 -7 -30 -33 -9 -21 -16 -32 -16 -26 -1 7
-12 20 -26 29 -25 16 -26 16 -61 -22 -19 -21 -39 -38 -44 -36 -6 1 -10 -14
-10 -33 0 -26 -3 -33 -15 -29 -8 4 -15 1 -15 -5 0 -6 4 -11 9 -11 6 0 3 -16
-5 -35 -7 -19 -14 -36 -14 -39 0 -2 21 -4 48 -4 45 0 46 1 25 15 -26 18 -30
38 -8 47 21 8 19 26 -2 26 -12 0 -14 3 -7 8 16 10 134 2 134 -9 0 -5 -9 -9
-20 -9 -26 0 -25 -14 3 -33 21 -15 21 -16 -25 -16 -27 -1 -48 -5 -48 -11 0 -5
5 -10 10 -10 6 0 10 -13 10 -30 0 -16 4 -30 9 -30 5 0 14 14 21 30 7 17 20 30
29 30 14 -1 13 -3 -3 -15 -12 -9 -16 -20 -12 -31 4 -10 1 -21 -6 -26 -9 -5 -6
-8 9 -8 15 0 23 7 25 23 3 21 4 21 35 -11 19 -19 30 -38 27 -47 -4 -8 -1 -15
6 -15 8 0 10 8 7 22 -4 13 0 29 9 39 13 14 12 19 -5 40 -18 23 -18 24 2 51 24
32 43 38 27 9 -13 -26 -13 -31 5 -31 10 0 15 -10 15 -30 0 -19 6 -33 16 -37
10 -4 14 -13 10 -28 -4 -16 -1 -25 10 -29 11 -4 14 -13 10 -30 -3 -14 -2 -27
4 -31 5 -3 6 -13 3 -22 -4 -11 -2 -14 8 -11 8 2 17 20 20 39 4 19 7 28 8 22 2
-24 20 -13 23 15 3 24 7 27 40 27 44 0 49 -11 12 -25 -28 -11 -23 -35 7 -27
10 3 35 -1 56 -8 l38 -13 -28 -11 c-41 -16 -44 -37 -8 -73 35 -36 39 -51 14
-46 -10 2 -19 13 -21 26 -2 13 -10 22 -21 22 -10 0 -24 7 -31 15 -17 21 -54
15 -58 -9 -3 -11 -10 -26 -18 -34 -8 -7 -14 -30 -14 -50 l1 -37 14 25 c8 14
14 32 15 41 0 16 19 29 42 29 6 0 7 -13 3 -31 -7 -30 -6 -31 18 -25 16 4 40 0
62 -11 29 -14 38 -15 44 -4 6 9 10 7 14 -8 3 -12 13 -21 24 -21 27 0 63 -59
56 -92 -4 -23 -1 -29 18 -37 32 -12 39 -6 39 35 0 24 5 34 15 34 13 0 15 139
15 1195 l0 1195 -1465 0 c-1463 0 -1465 0 -1453 -20z m471 -117 c3 -5 1 -17
-4 -28 -4 -11 -8 -15 -8 -8 -1 6 -4 18 -7 27 -6 16 11 23 19 9z m114 -219 c-3
-3 -12 -4 -19 -1 -8 3 -5 6 6 6 11 1 17 -2 13 -5z m59 -99 c-8 -8 -20 -15 -26
-15 -16 0 12 29 28 30 10 0 10 -4 -2 -15z m178 0 c4 -13 -7 -15 -72 -13 -42 1
-60 3 -39 5 20 2 37 8 37 14 0 16 67 10 74 -6z m-4 -71 c0 -2 -17 -4 -37 -3
-29 0 -33 2 -18 8 18 7 55 4 55 -5z m4 -49 c3 -9 0 -15 -9 -15 -16 0 -27 14
-18 24 10 10 21 7 27 -9z m214 -22 c-10 -2 -28 -2 -40 0 -13 2 -5 4 17 4 22 1
32 -1 23 -4z m-198 -22 c0 -5 -9 -7 -20 -4 -11 3 -20 7 -20 9 0 2 9 4 20 4 11
0 20 -4 20 -9z m198 -8 c-10 -2 -28 -2 -40 0 -13 2 -5 4 17 4 22 1 32 -1 23
-4z m267 -283 c3 -5 15 -10 26 -10 10 0 19 -4 19 -10 0 -17 -29 -11 -50 10
-11 11 -16 20 -11 20 6 0 13 -4 16 -10z m159 -155 c8 -8 20 -15 27 -15 7 0 10
-3 6 -6 -11 -11 -67 7 -67 22 0 18 15 18 34 -1z m381 -235 c3 -5 1 -10 -4 -10
-6 0 -11 5 -11 10 0 6 2 10 4 10 3 0 8 -4 11 -10z m624 -376 c8 -21 9 -40 4
-45 -5 -5 -16 10 -25 36 -13 34 -14 45 -5 45 7 0 19 -16 26 -36z m-139 -144
c0 -5 -13 -10 -30 -10 -16 0 -30 5 -30 10 0 6 14 10 30 10 17 0 30 -4 30 -10z
m204 -194 c-5 -13 -9 -14 -14 -5 -11 16 0 43 12 31 5 -5 6 -17 2 -26z m272
-54 c6 -12 18 -30 26 -39 9 -10 19 -29 23 -43 4 -14 13 -33 20 -43 17 -25 8
-58 -13 -49 -10 3 -21 12 -27 19 -11 15 -71 20 -97 9 -14 -6 -18 -3 -18 13 0
12 5 21 11 21 6 0 8 8 4 19 -3 11 -1 22 5 26 5 3 10 15 10 25 0 32 19 72 33
68 6 -3 17 -14 23 -26z m-79 1 c3 -7 -3 -9 -16 -6 -12 3 -21 10 -21 15 0 13
32 6 37 -9z"/>
<path d="M5410 4940 c0 -5 7 -10 15 -10 8 0 15 5 15 10 0 6 -7 10 -15 10 -8 0
-15 -4 -15 -10z"/>
<path d="M5780 4880 c0 -5 9 -10 20 -10 11 0 20 5 20 10 0 6 -9 10 -20 10 -11
0 -20 -4 -20 -10z"/>
<path d="M5750 4746 c0 -8 5 -18 10 -21 6 -3 10 3 10 14 0 12 -4 21 -10 21 -5
0 -10 -6 -10 -14z"/>
<path d="M5530 4668 c-19 -12 -37 -23 -40 -24 -3 -1 -15 -5 -27 -9 -13 -4 -23
-11 -23 -15 0 -4 -11 -11 -25 -14 -14 -4 -25 -11 -25 -16 0 -6 -9 -10 -19 -10
-11 0 -21 -4 -23 -10 -1 -5 -15 -11 -30 -12 -16 -1 -28 -8 -28 -15 0 -12 -7
-15 -26 -12 -4 0 -10 -3 -13 -8 -3 -6 -42 -27 -86 -47 -44 -21 -93 -44 -109
-52 -16 -8 -33 -14 -38 -14 -4 0 -26 -11 -47 -24 -21 -14 -41 -23 -43 -20 -3
2 -11 -2 -18 -11 -7 -8 -17 -15 -22 -15 -8 0 -244 -111 -538 -252 -347 -168
-535 -258 -670 -320 -36 -17 -112 -53 -170 -80 -58 -28 -129 -61 -159 -75 -29
-13 -51 -26 -49 -29 3 -2 57 20 119 50 289 137 371 176 374 176 2 0 60 27 129
60 70 33 128 60 130 60 4 0 346 159 611 285 44 21 109 51 144 67 36 16 112 52
170 80 58 27 189 88 291 135 102 47 210 98 241 114 l57 28 213 -231 c118 -127
245 -265 283 -307 38 -42 115 -125 171 -186 56 -60 126 -137 156 -170 30 -33
113 -123 184 -200 72 -78 175 -191 230 -251 55 -60 134 -145 175 -190 220
-236 308 -331 415 -449 64 -71 124 -137 132 -145 12 -13 15 -13 23 -1 11 18 2
35 -45 86 -21 22 -58 63 -83 90 -25 28 -73 80 -106 116 -34 36 -83 90 -111
120 -27 30 -100 108 -161 174 -61 66 -133 145 -160 175 -27 30 -73 80 -102
112 -34 35 -51 61 -46 69 4 7 3 10 -3 6 -6 -4 -33 19 -61 51 -29 31 -83 90
-121 131 -38 40 -68 79 -67 85 2 6 1 7 -2 3 -2 -4 -18 7 -35 26 -70 75 -246
265 -293 317 -27 30 -62 68 -79 85 -130 136 -215 236 -209 246 4 8 3 9 -4 5
-7 -4 -24 7 -41 26 -123 139 -236 258 -246 258 -5 0 -26 -10 -45 -22z"/>
<path d="M6196 4321 c-4 -7 -5 -15 -2 -18 9 -9 19 4 14 18 -4 11 -6 11 -12 0z"/>
<path d="M6140 4290 c0 -5 5 -10 10 -10 6 0 10 5 10 10 0 6 -4 10 -10 10 -5 0
-10 -4 -10 -10z"/>
<path d="M6373 4275 c-11 -26 -7 -30 21 -19 19 7 22 44 4 44 -7 0 -18 -11 -25
-25z"/>
<path d="M6400 4225 c0 -8 9 -15 20 -15 11 0 20 7 20 15 0 8 -9 15 -20 15 -11
0 -20 -7 -20 -15z"/>
<path d="M6368 4193 c7 -3 16 -2 19 1 4 3 -2 6 -13 5 -11 0 -14 -3 -6 -6z"/>
<path d="M6090 4160 c0 -5 5 -10 11 -10 5 0 7 5 4 10 -3 6 -8 10 -11 10 -2 0
-4 -4 -4 -10z"/>
<path d="M6590 4084 c0 -22 2 -25 15 -14 8 7 15 19 15 26 0 8 -7 14 -15 14
-10 0 -15 -10 -15 -26z"/>
<path d="M6817 3983 c-4 -3 -7 -18 -6 -32 0 -14 3 -20 6 -13 2 6 11 12 19 12
8 0 14 4 14 9 0 13 -26 32 -33 24z"/>
<path d="M6891 3924 c0 -11 3 -14 6 -6 3 7 2 16 -1 19 -3 4 -6 -2 -5 -13z"/>
<path d="M6610 3910 c0 -5 7 -10 15 -10 8 0 15 5 15 10 0 6 -7 10 -15 10 -8 0
-15 -4 -15 -10z"/>
<path d="M6890 3815 c0 -9 5 -15 11 -13 6 2 11 8 11 13 0 5 -5 11 -11 13 -6 2
-11 -4 -11 -13z"/>
<path d="M6840 3796 c0 -21 21 -31 31 -15 14 22 11 29 -11 29 -11 0 -20 -6
-20 -14z"/>
<path d="M7040 3770 c0 -14 7 -20 21 -20 12 0 31 -11 43 -23 16 -17 38 -26 74
-30 50 -6 53 -5 62 19 14 35 13 35 -17 32 -22 -2 -28 1 -28 17 0 16 -8 21 -42
23 -36 3 -43 0 -43 -15 -1 -17 -1 -17 -11 0 -14 25 -59 23 -59 -3z"/>
<path d="M6918 3743 c7 -3 16 -2 19 1 4 3 -2 6 -13 5 -11 0 -14 -3 -6 -6z"/>
<path d="M6540 3680 c0 -5 5 -10 11 -10 5 0 7 5 4 10 -3 6 -8 10 -11 10 -2 0
-4 -4 -4 -10z"/>
<path d="M7270 3652 c0 -22 -3 -47 -6 -56 -3 -9 -1 -16 5 -16 6 0 11 16 11 35
0 31 3 35 25 35 21 0 25 -5 25 -30 0 -20 -5 -30 -15 -30 -12 0 -12 -3 2 -20
20 -23 33 -26 33 -6 0 8 10 16 23 20 26 6 47 44 46 79 0 12 -3 16 -6 10 -5
-15 -50 -18 -55 -4 -1 5 -22 12 -45 16 l-43 7 0 -40z"/>
<path d="M7440 3645 c0 -9 9 -15 25 -15 16 0 25 6 25 15 0 9 -9 15 -25 15 -16
0 -25 -6 -25 -15z"/>
<path d="M3052 3473 c-122 -58 -221 -108 -219 -110 4 -4 146 61 352 162 61 29
106 54 100 54 -5 0 -110 -48 -233 -106z"/>
<path d="M7395 3519 c-10 -15 -2 -19 23 -12 12 3 19 9 16 14 -7 12 -31 11 -39
-2z"/>
<path d="M7636 3521 c-4 -6 -2 -11 3 -11 6 0 12 -10 12 -22 1 -17 3 -18 6 -6
6 23 -12 55 -21 39z"/>
<path d="M4397 3478 c-9 -7 -20 -24 -25 -38 -5 -14 -47 -72 -92 -130 -75 -96
-86 -106 -133 -121 -50 -15 -92 -32 -317 -124 -58 -24 -141 -58 -185 -75 -124
-49 -126 -53 -62 -132 24 -29 52 -67 63 -85 32 -54 404 -532 420 -541 23 -13
154 36 154 57 0 10 -14 36 -30 58 l-30 41 46 16 c70 24 136 70 204 142 165
177 196 425 69 553 -19 19 -51 45 -71 59 -42 27 -43 10 12 142 13 30 36 70 52
88 31 36 28 57 -14 86 -27 19 -39 20 -61 4z m-96 -465 c125 -50 75 -282 -84
-392 -23 -16 -74 -40 -113 -54 l-72 -26 -122 155 c-67 85 -127 154 -132 154
-31 0 23 26 175 86 263 103 276 106 348 77z"/>
<path d="M4077 2950 c-9 -13 -12 -37 -9 -68 l4 -49 -56 -22 c-65 -27 -78 -51
-48 -90 20 -26 44 -31 90 -16 19 6 22 4 22 -17 0 -28 41 -78 64 -78 32 0 47
31 45 89 l-3 55 54 21 c34 13 57 29 64 44 9 20 6 27 -23 53 -19 17 -39 27 -48
24 -51 -20 -63 -19 -63 7 0 26 -40 67 -66 67 -7 0 -19 -9 -27 -20z"/>
<path d="M7380 3480 c0 -5 5 -10 10 -10 6 0 10 5 10 10 0 6 -4 10 -10 10 -5 0
-10 -4 -10 -10z"/>
<path d="M7570 3451 c-10 -19 -8 -21 15 -21 19 0 26 5 23 17 -5 25 -25 27 -38
4z"/>
<path d="M7460 3350 c0 -5 5 -10 10 -10 6 0 10 5 10 10 0 6 -4 10 -10 10 -5 0
-10 -4 -10 -10z"/>
<path d="M7555 3270 c3 -5 10 -10 16 -10 5 0 9 5 9 10 0 6 -7 10 -16 10 -8 0
-12 -4 -9 -10z"/>
<path d="M7365 3188 c-11 -6 -21 -12 -23 -14 -5 -4 29 -54 37 -54 3 0 7 18 7
40 1 22 1 40 0 40 0 0 -10 -6 -21 -12z"/>
<path d="M7417 3174 c-15 -15 -6 -32 13 -27 12 3 19 10 17 16 -4 14 -21 19
-30 11z"/>
<path d="M7540 3170 c0 -5 5 -10 10 -10 6 0 10 5 10 10 0 6 -4 10 -10 10 -5 0
-10 -4 -10 -10z"/>
<path d="M7750 3022 c0 -12 19 -26 26 -19 2 2 -2 10 -11 17 -9 8 -15 8 -15 2z"/>
<path d="M3379 2874 l-30 -67 -23 22 -22 21 -220 -89 c-120 -49 -233 -97 -250
-107 -31 -18 -31 -18 -90 16 -32 18 -65 41 -72 51 -33 47 -88 -3 -63 -57 6
-14 20 -28 30 -31 11 -3 29 -24 41 -47 l23 -41 -41 -64 c-69 -105 -86 -161
-87 -276 0 -86 3 -106 23 -145 32 -60 69 -99 117 -121 54 -25 107 -24 191 4
60 21 71 28 87 60 20 43 23 44 46 16 l16 -20 130 44 c330 113 682 240 703 253
12 8 22 20 22 27 0 11 -63 98 -338 462 -140 186 -147 189 -193 89z m122 -242
c15 -20 54 -75 88 -122 34 -47 60 -93 59 -104 -2 -13 -36 -31 -133 -67 -160
-61 -247 -90 -252 -85 -4 3 133 320 168 388 22 43 34 42 70 -10z m-317 -193
c-53 -118 -107 -238 -120 -268 l-24 -54 -24 22 -24 23 -81 -31 c-90 -35 -119
-38 -160 -16 -33 17 -41 39 -40 115 0 95 59 202 143 259 50 34 419 184 424
171 1 -4 -41 -103 -94 -221z"/>
<path d="M2940 2397 c-58 -23 -111 -46 -118 -50 -20 -13 -14 -64 9 -81 19 -13
29 -12 103 15 152 57 166 65 166 97 0 28 -26 63 -46 61 -5 0 -56 -19 -114 -42z"/>
<path d="M7760 2925 c0 -9 5 -15 11 -13 6 2 11 8 11 13 0 5 -5 11 -11 13 -6 2
-11 -4 -11 -13z"/>
<path d="M7880 2775 c1 -26 2 -28 11 -12 8 14 8 22 0 30 -8 8 -11 3 -11 -18z"/>
<path d="M1550 2767 c-130 -59 -222 -101 -430 -199 -58 -28 -134 -63 -170 -80
-36 -16 -91 -43 -124 -59 -32 -16 -62 -29 -67 -29 -4 0 -61 -25 -126 -56 -65
-31 -152 -71 -193 -89 -41 -18 -113 -51 -160 -73 -47 -22 -129 -60 -183 -85
-59 -28 -97 -52 -97 -61 0 -11 37 3 133 48 72 35 213 102 312 149 198 94 366
174 522 248 57 27 105 49 107 49 5 0 287 134 421 200 55 27 96 49 90 49 -5 0
-21 -5 -35 -12z"/>
<path d="M7545 2411 c-7 -12 -4 -41 50 -456 36 -274 49 -381 86 -695 11 -96
27 -222 34 -280 8 -58 15 -123 16 -145 1 -22 5 -53 10 -70 4 -16 15 -88 23
-160 28 -241 67 -560 72 -582 4 -23 5 -23 199 -23 l195 0 0 865 c0 530 -4 865
-9 865 -17 0 -161 143 -161 160 0 9 8 16 20 16 13 0 19 -5 15 -14 -2 -7 0 -10
5 -7 6 3 10 13 10 22 0 12 -8 14 -36 11 -33 -4 -42 1 -102 58 -38 36 -62 66
-58 73 4 6 3 10 -2 9 -12 -3 -112 99 -112 113 0 6 -4 8 -8 5 -4 -2 -39 29 -77
71 -39 41 -91 97 -116 125 -29 30 -50 45 -54 39z"/>
<path d="M8030 2391 c0 -11 -6 -22 -12 -25 -10 -5 -10 -7 0 -12 6 -3 12 -17
12 -30 0 -13 5 -24 10 -24 6 0 10 6 10 14 0 14 36 26 58 18 22 -7 12 -38 -15
-49 l-28 -10 38 -8 c25 -5 42 -4 50 4 14 14 27 14 27 0 0 -6 10 -24 21 -41 27
-37 15 -48 -41 -41 -26 4 -46 0 -61 -11 -16 -11 -34 -14 -56 -10 -26 5 -33 3
-33 -10 0 -9 -8 -16 -20 -16 -28 0 -25 -28 3 -32 22 -3 39 -48 18 -48 -24 0
-9 -17 39 -45 28 -16 50 -35 50 -41 0 -7 6 -14 13 -17 18 -7 67 3 67 14 0 5
11 9 25 9 l25 0 0 173 c0 171 0 174 -24 197 -14 12 -31 20 -39 17 -8 -3 -36 5
-63 19 -57 29 -74 30 -74 5z m137 -77 c-9 -9 -28 6 -21 18 4 6 10 6 17 -1 6
-6 8 -13 4 -17z m3 -224 c0 -5 -13 -10 -29 -10 -17 0 -33 5 -36 10 -4 6 8 10
29 10 20 0 36 -4 36 -10z"/>
<path d="M8185 2390 c-3 -5 3 -10 14 -10 11 0 23 5 26 10 3 6 -3 10 -14 10
-11 0 -23 -4 -26 -10z"/>
<path d="M7988 2313 c6 -2 18 -2 25 0 6 3 1 5 -13 5 -14 0 -19 -2 -12 -5z"/>
<path d="M4286 2216 c7 -19 -14 -30 -53 -28 -27 2 -34 -2 -39 -22 -8 -31 -2
-58 13 -63 7 -3 13 9 15 29 3 30 6 33 38 33 34 0 35 -1 38 -40 3 -39 1 -40
-43 -59 -27 -10 -55 -16 -70 -12 -34 9 -58 57 -49 101 5 29 3 35 -11 35 -16 0
-17 -8 -10 -84 l7 -84 -29 -10 c-25 -9 -26 -11 -9 -17 27 -12 69 7 76 32 4 17
9 20 20 13 27 -18 103 -6 148 23 20 13 -8 151 -33 160 -9 4 -12 1 -9 -7z"/>
<path d="M5937 2189 c7 -7 15 -10 18 -7 3 3 -2 9 -12 12 -14 6 -15 5 -6 -5z"/>
<path d="M4035 2140 c20 -22 31 -20 22 5 -4 8 -14 15 -23 15 -16 0 -16 -2 1
-20z"/>
<path d="M3944 2048 c1 -79 0 -83 -21 -86 -21 -3 -23 1 -23 41 0 59 -10 107
-22 107 -7 0 -8 -31 -3 -85 7 -82 6 -85 -14 -85 -12 0 -21 -5 -21 -10 0 -18
30 -23 58 -10 15 8 31 13 35 12 5 -2 23 4 40 12 18 8 44 17 60 20 21 5 27 12
27 32 0 29 -16 64 -30 64 -6 0 -8 -16 -5 -34 3 -28 0 -36 -15 -41 -33 -10 -40
3 -40 76 0 51 -3 69 -14 69 -10 0 -13 -19 -12 -82z"/>
<path d="M3780 2061 c0 -12 6 -21 16 -21 9 0 14 7 12 17 -5 25 -28 28 -28 4z"/>
<path d="M3704 2018 c1 -20 -4 -23 -34 -23 -28 0 -36 -5 -44 -26 -10 -29 -3
-59 14 -59 5 0 10 11 10 24 0 30 16 41 52 37 32 -3 41 10 28 43 -12 32 -27 34
-26 4z"/>
<path d="M1650 1951 c-80 -32 -224 -91 -320 -131 -96 -39 -213 -84 -260 -99
-47 -15 -123 -44 -170 -64 -47 -20 -152 -63 -235 -96 -82 -33 -265 -106 -405
-163 l-255 -103 -3 -647 -2 -648 825 0 c454 0 825 3 825 8 1 4 3 32 5 62 6 67
28 350 55 690 11 140 27 338 35 440 8 102 24 300 34 440 11 140 23 281 27 313
3 31 2 57 -3 57 -4 0 -73 -27 -153 -59z m45 -644 c27 -21 9 -37 -40 -37 -72 0
-99 21 -52 40 33 13 71 12 92 -3z m-636 -218 c42 -15 35 -33 -14 -37 -73 -6
-112 18 -62 38 30 12 39 12 76 -1z m-559 -215 c0 -20 -24 -27 -65 -20 -42 8
-45 21 -8 33 35 12 73 5 73 -13z m1174 -10 c9 -3 16 -12 16 -20 0 -16 -85 -20
-109 -5 -35 22 45 44 93 25z m-1066 -361 c2 -8 -5 -13 -17 -13 -12 0 -21 6
-21 16 0 18 31 15 38 -3z m1052 -43 c0 -5 -2 -10 -4 -10 -3 0 -8 5 -11 10 -3
6 -1 10 4 10 6 0 11 -4 11 -10z m-433 -146 c-3 -3 -12 -4 -19 -1 -8 3 -5 6 6
6 11 1 17 -2 13 -5z m-483 -133 c3 -5 -4 -11 -17 -15 -27 -6 -67 3 -67 15 0
12 77 12 84 0z m896 -11 c0 -5 -4 -10 -10 -10 -5 0 -10 5 -10 10 0 6 5 10 10
10 6 0 10 -4 10 -10z m-1340 -120 c0 -5 -15 -10 -34 -10 -19 0 -38 5 -41 10
-4 6 10 10 34 10 23 0 41 -4 41 -10z"/>
<path d="M3520 1987 c0 -2 9 -30 21 -63 30 -88 30 -89 -18 -89 -27 0 -47 -6
-55 -16 -12 -15 -134 -59 -165 -59 -18 0 -16 -17 4 -24 23 -9 175 42 191 64
10 13 22 17 45 14 50 -7 62 6 47 52 -22 64 -50 124 -60 124 -6 0 -10 -2 -10
-3z"/>
<path d="M3790 1950 c0 -35 -3 -40 -24 -40 -15 0 -26 7 -29 20 -7 27 -22 26
-24 -2 -3 -34 -38 -62 -79 -62 -32 0 -34 -1 -18 -13 10 -7 24 -13 31 -13 24 0
83 29 83 40 0 7 12 9 33 5 44 -7 53 2 59 58 5 41 3 47 -13 47 -15 0 -19 -8
-19 -40z"/>
<path d="M3407 1931 c-3 -11 -17 -22 -36 -26 -46 -10 -53 -29 -7 -21 31 6 36
4 36 -13 0 -13 -11 -23 -35 -31 -19 -6 -33 -16 -29 -21 3 -5 15 -7 27 -3 12 4
31 8 42 9 15 1 20 9 21 31 0 17 4 35 8 42 8 14 -1 52 -14 52 -4 0 -10 -9 -13
-19z"/>
<path d="M8120 1900 c0 -5 5 -10 10 -10 6 0 10 5 10 10 0 6 -4 10 -10 10 -5 0
-10 -4 -10 -10z"/>
<path d="M3480 1889 c0 -5 5 -7 10 -4 6 3 10 8 10 11 0 2 -4 4 -10 4 -5 0 -10
-5 -10 -11z"/>
<path d="M3242 1858 c-7 -7 -12 -38 -12 -69 0 -50 -3 -59 -21 -64 -30 -10 -7
-29 25 -21 25 6 26 10 26 70 0 49 4 65 16 70 17 6 10 26 -10 26 -6 0 -17 -5
-24 -12z"/>
<path d="M3156 1831 c-3 -5 1 -11 9 -15 15 -6 29 7 18 18 -9 9 -21 8 -27 -3z"/>
<path d="M3085 1808 c9 -36 -10 -73 -44 -88 -24 -10 -31 -19 -31 -40 0 -23 -5
-29 -32 -35 -18 -4 -50 -6 -70 -6 -28 0 -40 -5 -48 -19 -16 -30 -43 -26 -38 5
3 14 1 25 -3 25 -5 0 -9 -6 -9 -14 0 -24 -48 -66 -75 -66 -14 0 -24 -4 -21 -9
11 -17 44 -18 77 -3 19 8 45 17 59 18 13 2 30 11 37 20 9 12 28 18 56 19 63 3
97 20 97 49 0 17 8 29 27 38 36 17 59 63 47 96 -12 34 -37 43 -29 10z"/>
<path d="M8210 1790 c0 -5 5 -10 10 -10 6 0 10 5 10 10 0 6 -4 10 -10 10 -5 0
-10 -4 -10 -10z"/>
<path d="M2920 1780 c0 -14 15 -78 26 -110 4 -12 6 -12 14 -1 5 8 3 33 -5 59
-15 47 -35 78 -35 52z"/>
<path d="M3015 1779 c-10 -15 1 -23 20 -15 9 3 13 10 10 16 -8 13 -22 13 -30
-1z"/>
<path d="M2807 1709 c-5 -17 -11 -20 -31 -15 -29 7 -46 -15 -46 -58 0 -39 28
-33 32 6 3 29 6 32 38 33 30 0 35 3 35 24 0 31 -21 39 -28 10z"/>
<path d="M6905 1440 c10 -11 20 -20 23 -20 3 0 -3 9 -13 20 -10 11 -20 20 -23
20 -3 0 3 -9 13 -20z"/>
<path d="M5804 1075 c11 -8 24 -15 30 -15 5 0 1 7 -10 15 -10 8 -23 14 -29 14
-5 0 -1 -6 9 -14z"/>
<path d="M5984 971 c7 -11 46 -35 46 -28 0 3 -12 12 -26 22 -15 9 -23 12 -20
6z"/>
<path d="M6040 936 c0 -3 9 -10 20 -16 11 -6 20 -8 20 -6 0 3 -9 10 -20 16
-11 6 -20 8 -20 6z"/>
<path d="M7590 896 c0 -2 7 -7 16 -10 8 -3 12 -2 9 4 -6 10 -25 14 -25 6z"/>
<path d="M7690 826 c0 -2 8 -10 18 -17 15 -13 16 -12 3 4 -13 16 -21 21 -21
13z"/>
<path d="M6617 579 c7 -7 15 -10 18 -7 3 3 -2 9 -12 12 -14 6 -15 5 -6 -5z"/>
<path d="M6650 566 c0 -2 8 -10 18 -17 15 -13 16 -12 3 4 -13 16 -21 21 -21
13z"/>
<path d="M6905 405 c30 -25 59 -39 51 -26 -4 6 -22 18 -39 27 -30 14 -31 14
-12 -1z"/>
<path d="M7220 210 c35 -24 54 -31 30 -11 -14 11 -29 21 -35 21 -5 0 -3 -5 5
-10z"/>
<path d="M7460 66 c0 -3 9 -10 20 -16 11 -6 20 -8 20 -6 0 3 -9 10 -20 16 -11
6 -20 8 -20 6z"/>
</g>
</svg>
